<svg width="20" height="24" viewBox="0 0 20 24" fill="none" xmlns="http://www.w3.org/2000/svg">
<g clip-path="url(#clip0_6_21)">
<path fill-rule="evenodd" clip-rule="evenodd" d="M13.256 3.89624C14.0196 2.88584 14.5985 1.45774 14.3891 0C13.141 0.088904 11.6822 0.907396 10.831 1.97424C10.055 2.9409 9.41729 4.37889 9.66636 5.77454C11.0308 5.81828 12.439 4.98002 13.256 3.89624ZM20 17.6086C19.454 18.8561 19.1912 19.4135 18.4878 20.5185C17.5066 22.0609 16.123 23.9815 14.4069 23.9956C12.8837 24.0125 12.491 22.9725 10.4231 22.9852C8.35532 22.9965 7.92424 24.0153 6.39835 23.9998C4.6836 23.9843 3.37257 22.2514 2.39135 20.709C-0.353892 16.3992 -0.642649 11.3402 1.0502 8.64908C2.25449 6.73835 4.15399 5.6207 5.93853 5.6207C7.75455 5.6207 8.89726 6.64804 10.4013 6.64804C11.8601 6.64804 12.7483 5.61789 14.8489 5.61789C16.4391 5.61789 18.1238 6.51115 19.3226 8.05215C15.3922 10.2733 16.0286 16.0606 20 17.6086Z" fill="#C1C7D0"/>
</g>
<defs>
<clipPath id="clip0_6_21">
<rect width="20" height="24" fill="white"/>
</clipPath>
</defs>
</svg>
