<svg width="16" height="16" viewBox="0 0 16 16" fill="none" xmlns="http://www.w3.org/2000/svg">
<g clip-path="url(#clip0_20_193)">
<path d="M3.7875 7.63435C2.05625 7.64685 0.156251 7.86873 0.0125012 5.57185C0.0187512 4.89998 0.0125012 4.23748 0.0125012 3.56873C0.0531262 2.56873 -0.218749 1.34685 0.593751 0.587476C0.971876 0.212476 1.48125 0.00622559 2.0125 0.00935059C2.84688 0.00622559 3.6625 0.00622559 4.4375 0.00622559H5.66875C6.72813 0.00935059 7.60625 0.887476 7.625 1.96873C7.64688 3.25935 7.64688 4.45935 7.625 5.63123C7.60313 6.7531 6.7375 7.60935 5.60938 7.62185C4.99688 7.63123 4.38438 7.63435 3.7875 7.63435ZM3.76875 1.6281C3.18438 1.6281 2.64063 1.6281 2.1125 1.63123C1.77813 1.63123 1.6375 1.7781 1.6375 2.11248C1.63438 3.20623 1.63438 4.35935 1.6375 5.53123C1.6375 5.83123 1.77813 5.97185 2.075 5.97185C3.24375 5.97498 4.4125 5.97498 5.58125 5.97185C5.84375 5.97185 5.97813 5.83435 5.98125 5.56873C5.98438 4.80935 5.98125 4.05935 5.98125 3.30623C5.98438 1.11248 6.19688 1.72185 3.76875 1.6281Z" fill="#B0B7C3"/>
<path d="M12.1781 7.6343C11.5781 7.6343 10.9781 7.63118 10.3969 7.6218C9.28438 7.62805 8.37813 6.72805 8.37188 5.61555C8.37188 5.60618 8.37188 5.59993 8.37188 5.59055C8.35625 4.31868 8.35625 3.1468 8.37188 2.01243C8.36875 0.909302 9.2625 0.00930176 10.3656 0.00617676H10.3906C11.5875 -0.00319824 12.7813 -0.00319824 14.0313 0.00617676C15.0656 -0.00944824 15.9969 0.931177 15.9844 1.96555C15.9906 2.66243 15.9844 3.3468 15.9844 4.03743C15.95 5.03743 16.2 6.27805 15.4 7.0343C14.5875 7.89055 13.2344 7.56868 12.1781 7.6343ZM13.2281 5.97805C13.6031 5.92805 14.3563 6.1718 14.3625 5.56868C14.3688 4.51243 14.3688 3.3593 14.3625 2.04368C14.3625 1.79368 14.1969 1.63118 13.9469 1.63118C12.775 1.62493 11.6063 1.62493 10.4438 1.63118C10.1625 1.63118 10.0188 1.78118 10.0188 2.06868V5.55305C10.0188 5.8468 10.15 5.97805 10.4438 5.97805C11.4313 5.97493 12.25 5.97493 13.2281 5.97805Z" fill="#B0B7C3"/>
<path d="M5.6 15.9938C4.6625 15.9719 3.65 15.9969 2.7 15.9906C1.95625 16.025 1.125 15.9844 0.59375 15.4063C0.0781251 14.9281 -0.0343749 14.175 0.00937509 13.4875C0.00625009 12.4594 0.00625009 11.3969 0.0156251 10.35C0.0187501 9.45626 0.621875 8.67814 1.48438 8.45001C2.29063 8.28751 3.04375 8.40001 3.95 8.36564C4.47188 8.36564 4.99062 8.36563 5.5125 8.36876C7.675 8.48126 7.70312 10.1406 7.63125 11.8625C7.63125 12.525 7.62813 13.2125 7.63438 13.8875C7.6625 15.0188 6.73125 16.0125 5.6 15.9938ZM3.84375 10.0188C3.25312 10.0188 2.6625 10.0188 2.07188 10.0188C1.875 10.0188 1.6375 10.0906 1.63438 10.4219C1.625 11.5781 1.625 12.7625 1.63438 13.9469C1.6375 14.2063 1.79688 14.3625 2.06562 14.3656C3.21562 14.3688 4.37187 14.3688 5.525 14.3656C5.83437 14.3656 5.97187 14.225 5.975 13.9094C5.975 13.5094 5.975 13.1031 5.975 12.7125C5.97187 11.9563 5.97813 11.1875 5.975 10.4281C5.975 10.1594 5.8375 10.0219 5.57188 10.0219C4.99688 10.0188 4.42188 10.0188 3.84375 10.0188Z" fill="#B0B7C3"/>
<path d="M12.1844 15.9937C8.84688 16.0125 7.08438 11.85 9.49063 9.49685C10.9125 8.01247 13.4563 7.99372 14.8781 9.4906C17.2625 11.8468 15.5406 16.0156 12.1844 15.9937ZM12.1844 10.0187C9.30938 10.1 9.34063 14.2687 12.1688 14.3625C15.05 14.2718 15.0844 10.1062 12.1844 10.0187Z" fill="#B0B7C3"/>
</g>
<defs>
<clipPath id="clip0_20_193">
<rect width="16" height="16" fill="white"/>
</clipPath>
</defs>
</svg>
