<svg width="51" height="44" viewBox="0 0 51 44" fill="none" xmlns="http://www.w3.org/2000/svg">
<g clip-path="url(#clip0_15_14)">
<path fill-rule="evenodd" clip-rule="evenodd" d="M50.4409 25.3834L48.5223 22.7586H49.7084C50.027 22.7582 50.32 22.6066 50.4725 22.3633C50.6251 22.12 50.613 21.8236 50.4409 21.5903L39.3393 6.41793C39.181 6.19923 38.9039 6.06725 38.6068 6.06897H11.9735C11.6763 6.06725 11.3993 6.19923 11.2409 6.41793L0.139345 21.5903C-0.0327063 21.8236 -0.0448201 22.12 0.107748 22.3633C0.260317 22.6066 0.55328 22.7582 0.871892 22.7586H2.05792L0.139345 25.3834C-0.0327063 25.6167 -0.0448201 25.9131 0.107748 26.1564C0.260317 26.3997 0.55328 26.5513 0.871892 26.5517H2.05792L0.139345 29.1766C-0.0327063 29.4098 -0.0448201 29.7062 0.107748 29.9495C0.260317 30.1928 0.55328 30.3444 0.871892 30.3448H2.05792L0.139345 32.9697C-0.0327063 33.2029 -0.0448201 33.4993 0.107748 33.7426C0.260317 33.9859 0.55328 34.1375 0.871892 34.1379H2.05792L0.139345 36.7628C-0.0327063 36.996 -0.0448201 37.2924 0.107748 37.5357C0.260317 37.779 0.55328 37.9306 0.871892 37.931H49.7084C50.027 37.9306 50.32 37.779 50.4725 37.5357C50.6251 37.2924 50.613 36.996 50.4409 36.7628L48.5223 34.1379H49.7084C50.027 34.1375 50.32 33.9859 50.4725 33.7426C50.6251 33.4993 50.613 33.2029 50.4409 32.9697L48.5223 30.3448H49.7084C50.027 30.3444 50.32 30.1928 50.4725 29.9495C50.6251 29.7062 50.613 29.4098 50.4409 29.1766L48.5223 26.5517H49.7084C50.027 26.5513 50.32 26.3997 50.4725 26.1564C50.6251 25.9131 50.613 25.6167 50.4409 25.3834Z" fill="#B0D3F0"/>
<path fill-rule="evenodd" clip-rule="evenodd" d="M11.985 11.8072C11.6671 11.8068 11.3745 11.656 11.2216 11.4135C11.0686 11.1711 11.0794 10.8754 11.2498 10.6419L12.6731 8.69607C12.8332 8.47721 13.1109 8.34472 13.4091 8.34483H17.4416C17.9232 8.34483 18.3137 8.68448 18.3137 9.10345C18.3137 9.52242 17.9232 9.86207 17.4416 9.86207H13.8879L12.7219 11.4552C12.5618 11.6746 12.2837 11.8074 11.985 11.8072Z" fill="white"/>
<path fill-rule="evenodd" clip-rule="evenodd" d="M49.7084 26.5517H0.871892C0.55328 26.5513 0.260317 26.3997 0.107748 26.1564C-0.0448201 25.9131 -0.0327063 25.6167 0.139345 25.3834L2.05792 22.7586H48.5223L50.4409 25.3834C50.613 25.6167 50.6251 25.9131 50.4725 26.1564C50.32 26.3997 50.027 26.5513 49.7084 26.5517Z" fill="#3B97D3"/>
<path fill-rule="evenodd" clip-rule="evenodd" d="M49.7084 30.3448H0.871892C0.55328 30.3444 0.260317 30.1928 0.107748 29.9495C-0.0448201 29.7062 -0.0327063 29.4098 0.139345 29.1766L2.05792 26.5517H48.5223L50.4409 29.1766C50.613 29.4098 50.6251 29.7062 50.4725 29.9495C50.32 30.1928 50.027 30.3444 49.7084 30.3448Z" fill="#2980BA"/>
<path fill-rule="evenodd" clip-rule="evenodd" d="M49.7084 34.1379H0.871892C0.55328 34.1375 0.260317 33.9859 0.107748 33.7426C-0.0448201 33.4993 -0.0327063 33.2029 0.139345 32.9697L2.05792 30.3448H48.5223L50.4409 32.9697C50.613 33.2029 50.6251 33.4993 50.4725 33.7426C50.32 33.9859 50.027 34.1375 49.7084 34.1379Z" fill="#3B97D3"/>
<path fill-rule="evenodd" clip-rule="evenodd" d="M49.7084 37.931H0.871892C0.55328 37.9306 0.260317 37.779 0.107748 37.5357C-0.0448201 37.2924 -0.0327063 36.996 0.139345 36.7628L2.05792 34.1379H48.5223L50.4409 36.7628C50.613 36.996 50.6251 37.2924 50.4725 37.5357C50.32 37.779 50.027 37.9306 49.7084 37.931Z" fill="#2980BA"/>
</g>
<defs>
<clipPath id="clip0_15_14">
<rect width="50.5806" height="44" fill="white"/>
</clipPath>
</defs>
</svg>
