<svg width="20" height="20" viewBox="0 0 20 20" fill="none" xmlns="http://www.w3.org/2000/svg">
<g clip-path="url(#clip0_6_37)">
<circle cx="10" cy="10" r="10" fill="#EDEFF1"/>
<path d="M13.3875 12.2842C12.9742 12.7813 12.4565 13.1814 11.8712 13.456C11.2858 13.7306 10.6472 13.8729 10.0006 13.8729C9.3541 13.8729 8.71548 13.7306 8.13014 13.456C7.5448 13.1814 7.02708 12.7813 6.61376 12.2842C6.44788 12.0927 6.21355 11.9739 5.96107 11.9533C5.70859 11.9326 5.45808 12.0118 5.26332 12.1738C5.06856 12.3358 4.94507 12.5677 4.91937 12.8197C4.89366 13.0717 4.96778 13.3238 5.12582 13.5217C5.72158 14.236 6.46702 14.8106 7.3094 15.205C8.15179 15.5993 9.07054 15.8037 10.0006 15.8037C10.9308 15.8037 11.8495 15.5993 12.6919 15.205C13.5343 14.8106 14.2797 14.236 14.8755 13.5217C15.0335 13.3238 15.1076 13.0717 15.0819 12.8197C15.0562 12.5677 14.9327 12.3358 14.738 12.1738C14.5432 12.0118 14.2927 11.9326 14.0402 11.9533C13.7877 11.9739 13.5534 12.0927 13.3875 12.2842Z" fill="#C6CCD4"/>
</g>
<defs>
<clipPath id="clip0_6_37">
<rect width="20" height="20" fill="white"/>
</clipPath>
</defs>
</svg>
