<svg width="25" height="25" viewBox="0 0 25 25" fill="none" xmlns="http://www.w3.org/2000/svg">
<path d="M18.9269 16.9271H6.07302V18.4896H18.9269V16.9271ZM18.3074 9.2484L18.6666 12.4197L20.2192 12.2439L19.86 9.07251L18.3074 9.2484ZM6.33328 12.4197L6.69253 9.2484L5.13996 9.07251L4.78072 12.2439L6.33328 12.4197ZM5.23648 14.9643C5.8455 14.2474 6.22678 13.3599 6.33328 12.4197L4.78072 12.2439C4.70868 12.8797 4.45121 13.4753 4.04572 13.9525L5.23648 14.9643ZM18.6666 12.4197C18.7732 13.3599 19.1544 14.2474 19.7634 14.9643L20.9542 13.9525C20.5487 13.4753 20.2912 12.8797 20.2192 12.2439L18.6666 12.4197ZM6.07302 16.9271C5.14927 16.9271 4.56168 15.7584 5.23648 14.9643L4.04572 13.9525C2.56757 15.6924 3.72733 18.4896 6.07302 18.4896V16.9271ZM18.9269 18.4896C21.2726 18.4896 22.4324 15.6924 20.9542 13.9525L19.7634 14.9643C20.4382 15.7584 19.8507 16.9271 18.9269 16.9271V18.4896ZM19.86 9.07251C19.4275 5.25493 16.279 2.34375 12.5 2.34375V3.90625C15.4481 3.90625 17.9603 6.18435 18.3074 9.2484L19.86 9.07251ZM6.69253 9.2484C7.03962 6.18435 9.5518 3.90625 12.5 3.90625V2.34375C8.72091 2.34375 5.57241 5.25493 5.13996 9.07251L6.69253 9.2484Z" fill="#B0B7C3"/>
<path d="M16.3565 20.0658C16.508 19.6617 16.3032 19.2115 15.8991 19.0601C15.4951 18.9086 15.0449 19.1134 14.8934 19.5174L16.3565 20.0658ZM10.1065 19.5174C9.95511 19.1134 9.50483 18.9086 9.1008 19.0601C8.69677 19.2115 8.49199 19.6617 8.6434 20.0658L10.1065 19.5174ZM14.8934 19.5174C14.5573 20.4144 13.6298 21.0937 12.5 21.0937V22.6562C14.2557 22.6562 15.7829 21.5963 16.3565 20.0658L14.8934 19.5174ZM12.5 21.0937C11.3702 21.0937 10.4427 20.4144 10.1065 19.5174L8.6434 20.0658C9.217 21.5963 10.7442 22.6562 12.5 22.6562V21.0937Z" fill="#B0B7C3"/>
</svg>
