<svg width="16" height="19" viewBox="0 0 16 19" fill="none" xmlns="http://www.w3.org/2000/svg">
<g clip-path="url(#clip0_20_240)">
<path d="M13.0588 17.1499H2.70587V18.4746H13.0588V17.1499Z" fill="#B0B7C3"/>
<path d="M9.74509 6.48633H6.11766C5.79275 6.48633 5.52941 6.78285 5.52941 7.14868C5.52941 7.51452 5.79275 7.81104 6.11766 7.81104H9.74509C10.07 7.81104 10.3333 7.51452 10.3333 7.14868C10.3333 6.78285 10.07 6.48633 9.74509 6.48633Z" fill="#B0B7C3"/>
<path d="M12.4902 9.57715H6.11766C5.79275 9.57715 5.52941 9.87367 5.52941 10.2395C5.52941 10.6053 5.79275 10.9019 6.11766 10.9019H12.4902C12.8151 10.9019 13.0784 10.6053 13.0784 10.2395C13.0784 9.87367 12.8151 9.57715 12.4902 9.57715Z" fill="#B0B7C3"/>
<path d="M15.6533 0.649513C15.4422 0.542651 15.1953 0.58484 15.022 0.757255L13.3747 2.39808L11.7255 0.737586C11.5022 0.512602 11.1645 0.512602 10.9412 0.737586L9.29412 2.39608L7.64687 0.737586C7.42353 0.512602 7.08609 0.512602 6.86275 0.737586L5.21353 2.39808L3.56628 0.757255C3.39316 0.585051 3.14609 0.542862 2.93491 0.649513C2.72394 0.756587 2.58825 0.992831 2.58825 1.25335V13.043H0.58825C0.263344 13.043 0 13.3395 0 13.7053V15.317C0 17.0578 1.25784 18.4741 2.80391 18.4741V17.1495C1.90647 17.1495 1.17647 16.3273 1.17647 15.317V14.3677H10.3922V15.317C10.3922 17.0578 11.65 18.4742 13.1961 18.4742C14.7421 18.4742 16 17.0579 16 15.317V1.25332C16 0.992795 15.8643 0.756587 15.6533 0.649513ZM14.8235 15.317C14.8235 16.3273 14.0933 17.1495 13.1961 17.1495C12.2988 17.1495 11.5687 16.3273 11.5687 15.317V13.7053C11.5687 13.3395 11.3053 13.043 10.9804 13.043H3.76472V2.72349L4.82609 3.78082C5.04962 4.00338 5.38569 4.00225 5.60784 3.77839L7.25491 2.1199L8.90197 3.77818C9.12531 4.00316 9.46294 4.00316 9.68628 3.77818L11.3335 2.11969L12.9806 3.77818C13.2029 4.00204 13.539 4.00292 13.7623 3.78061L14.8235 2.72353V15.317Z" fill="#B0B7C3"/>
</g>
<defs>
<clipPath id="clip0_20_240">
<rect width="16" height="18.0156" fill="white" transform="translate(0 0.51416)"/>
</clipPath>
</defs>
</svg>
