<svg width="16" height="16" viewBox="0 0 16 16" fill="none" xmlns="http://www.w3.org/2000/svg">
<g clip-path="url(#clip0_20_210)">
<path d="M8 8.86221C5.57499 8.86221 3.67132 9.43562 2.37198 10.5518C1.06902 11.671 0.394998 13.3177 0.394998 15.4161C0.394998 15.8215 0.723562 16.1501 1.12894 16.1501H14.871C15.2764 16.1501 15.605 15.8215 15.605 15.4161C15.605 13.3178 14.931 11.6711 13.628 10.5518C12.3287 9.43568 10.425 8.86221 8 8.86221ZM14.1026 14.6822H1.89757C2.03732 13.2542 2.59969 12.1881 3.56846 11.4687C4.57889 10.7183 6.0513 10.3301 8 10.3301C9.9487 10.3301 11.4211 10.7183 12.4316 11.4687C13.4004 12.1881 13.9628 13.2542 14.1026 14.6822Z" fill="#B0B7C3" stroke="#B0B7C3" stroke-width="0.3"/>
<path d="M8 -0.15C5.70608 -0.15 3.97653 1.61867 3.97653 3.95116C3.97653 6.34063 5.76998 8.30553 8 8.30553C10.23 8.30553 12.0235 6.34063 12.0235 3.95134C12.0235 1.61867 10.2939 -0.15 8 -0.15ZM8 6.83784C6.60668 6.83784 5.44441 5.55959 5.44441 3.95134C5.44441 2.4173 6.51914 1.31788 8 1.31788C9.45577 1.31788 10.5556 2.44318 10.5556 3.95134C10.5556 5.55959 9.39332 6.83784 8 6.83784Z" fill="#B0B7C3" stroke="#B0B7C3" stroke-width="0.3"/>
</g>
<defs>
<clipPath id="clip0_20_210">
<rect width="16" height="16" fill="white"/>
</clipPath>
</defs>
</svg>
