<svg width="22" height="22" viewBox="0 0 22 22" fill="none" xmlns="http://www.w3.org/2000/svg">
<path d="M11 20.1658C9.71584 20.1671 8.44553 19.9008 7.27005 19.3839C5.91227 18.7803 4.72156 17.8557 3.80049 16.6897C2.87942 15.5238 2.25558 14.1514 1.98272 12.6908C1.70987 11.2302 1.79616 9.72518 2.23418 8.30529C2.67221 6.88543 3.44882 5.59334 4.49713 4.5403C5.3467 3.67944 6.35936 2.99659 7.4759 2.53164C8.59246 2.0667 9.79046 1.82901 11 1.83247C11.2897 1.83247 11.5839 1.84622 11.8736 1.87372C14.1636 2.13239 16.2773 3.22845 17.8081 4.95118C19.3389 6.67391 20.179 8.90172 20.1667 11.2063V11.8242C20.1667 12.7194 19.8127 13.5783 19.182 14.2137C18.5513 14.8491 17.695 15.2092 16.7998 15.2158C16.7411 15.2158 16.6815 15.2158 16.6228 15.2113C16.1037 15.181 15.5989 15.0297 15.1488 14.7694C14.6987 14.5092 14.3157 14.1472 14.0305 13.7125C13.4796 14.4876 12.7055 15.0763 11.8113 15.4001C10.9172 15.7239 9.94556 15.7673 9.02614 15.5245C8.10671 15.2817 7.28317 14.7643 6.66543 14.0413C6.04769 13.3183 5.66511 12.4242 5.56875 11.4781C5.47239 10.532 5.66683 9.57916 6.12612 8.74645C6.58542 7.91377 7.28772 7.24096 8.13933 6.81779C8.99093 6.39462 9.95133 6.24122 10.8924 6.37806C11.8334 6.51489 12.7104 6.93546 13.4063 7.58363C13.4312 7.36378 13.536 7.16074 13.7007 7.01304C13.8654 6.86536 14.0787 6.78331 14.3 6.78246C14.5431 6.78246 14.7762 6.87905 14.9482 7.05096C15.1201 7.22286 15.2167 7.45602 15.2167 7.69913V11.6628C15.2005 12.0845 15.3451 12.4965 15.621 12.8157C15.897 13.1349 16.2839 13.3375 16.7035 13.3825H16.7723C16.9771 13.3829 17.18 13.3428 17.3694 13.2646C17.5588 13.1865 17.7309 13.0718 17.8759 12.927C18.0209 12.7823 18.1359 12.6104 18.2144 12.4211C18.2929 12.2319 18.3333 12.029 18.3333 11.8242V11.2054C18.3488 9.35696 17.6806 7.56798 16.4571 6.18234C15.2335 4.79671 13.541 3.91219 11.7049 3.6988C11.4721 3.67771 11.2356 3.6658 11 3.6658C9.97278 3.66543 8.95696 3.88087 8.01835 4.29813C7.07973 4.71541 6.23924 5.32521 5.55133 6.08804C4.86343 6.85088 4.34346 7.74971 4.0251 8.72632C3.70675 9.70291 3.59711 10.7355 3.7033 11.7573C3.84016 13.0531 4.31942 14.2891 5.09187 15.3384C5.86433 16.3878 6.90215 17.2126 8.09878 17.7283C9.29537 18.244 10.6077 18.4319 11.901 18.2727C13.1942 18.1136 14.4218 17.6131 15.4578 16.8228C15.5533 16.7495 15.6624 16.6959 15.7787 16.6648C15.895 16.6338 16.0163 16.6259 16.1356 16.6418C16.255 16.6577 16.37 16.6968 16.4742 16.7571C16.5784 16.8174 16.6697 16.8976 16.7429 16.9933C16.8161 17.0888 16.8697 17.1979 16.9008 17.3142C16.9318 17.4305 16.9396 17.5518 16.9238 17.6711C16.908 17.7905 16.8688 17.9055 16.8085 18.0097C16.7482 18.1139 16.6679 18.2052 16.5724 18.2784C14.971 19.4994 13.0137 20.1624 11 20.1658ZM10.2502 8.16572C9.68972 8.16554 9.14179 8.33156 8.67572 8.64279C8.20965 8.95402 7.84634 9.39647 7.63175 9.9142C7.41714 10.4319 7.36091 11.0016 7.47013 11.5514C7.57936 12.101 7.84914 12.606 8.24536 13.0024C8.64158 13.3987 9.14645 13.6687 9.69613 13.778C10.2458 13.8874 10.8155 13.8314 11.3333 13.617C11.8511 13.4026 12.2937 13.0394 12.6051 12.5734C12.9165 12.1074 13.0827 11.5595 13.0827 10.9992C13.0817 10.2481 12.7829 9.5281 12.252 8.997C11.7211 8.46587 11.0011 8.16693 10.2502 8.16572Z" fill="#C5CBD3"/>
</svg>
